<?xml version="1.0" encoding="UTF-8"?>
<svg xmlns="http://www.w3.org/2000/svg" version="1.1" viewBox="0 0 668 220">
  <defs>
    <style>
      .cls-1 {
        fill: #fefefe;
      }

      .cls-2 {
        fill: #161616;
      }
    </style>
  </defs>
  <!-- Generator: Adobe Illustrator 28.7.2, SVG Export Plug-In . SVG Version: 1.2.0 Build 154)  -->
  <g>
    <g id="Layer_1">
      <g>
        <path class="cls-1" d="M0,220V0h668v220H0Z"/>
        <path class="cls-2" d="M303.8,181.41c-.7-2.25-1.08-4.2-2.19-5.91-3.23-4.95-2.96-10.8-3.75-16.3-.37-2.62,1.26-5.37,1.11-8.29-.15-2.99.07-5.99-1.11-8.86,1.76-4.09,1.27-8.17.11-12.22-.56-1.96-.73-3.82-.29-5.87.73-3.44.29-6.96.29-10.45,0-6.46.68-12.91-.68-19.33-.43-2.02.86-3.85,1.39-6.42-.26-1.4-1.45-3.4-.03-5.57.46-.71.5-2.11.11-2.88-1.45-2.88-1.11-5.89-.79-8.82.65-5.91-.26-11.85.85-17.79,1.11-5.99,2.74-11.58,6.88-16.16,1.9-2.1,3.95-4.02,4.56-6.99.15-.74.76-1.58,1.41-2,7.03-4.5,13.39-9.93,21.94-12.09,5.98-1.51,11.83-1.35,17.74-1.45,3.04-.05,6.17-1.76,8.95.28,1.68-.42,3.13-.78,4.74-1.19,4.15,1.29,8.47,2.19,12.26,4.97,2.47,1.81,5.6,2.8,8.54,3.88,1.48.54,2.76,1.17,3.63,2.44,2.01,2.93,4.86,5.03,7.4,7.41,4.41,4.14,6.52,9.2,7.99,15.01,1.24,4.87,1.86,9.72,2.53,14.64.29,2.16.48,4.26.47,6.43-.04,6.49-.05,12.99.08,19.48.04,2.2.19,4.34-.74,5.5.03,12.01-.61,23.26.59,35.16-2.47,6.43-.4,13.7-.39,20.91,0,.81.44,1.64.38,2.44-.68,9.24-.25,18.7-4.75,27.24-4.12,7.81-8.75,15.3-16.97,19.5-3.21,1.64-6.72,2.7-10.1,3.99-6.34,2.43-12.73,4.54-19.54,5.39-3.26.41-6.33.29-9.3-.8-1.57-.58-3.18-1.21-4.76-1.32-11.2-.77-20.6-5.71-29.4-12.21-1.25-.92-2.4-1.88-2.86-3.34-1.09-3.49-3.45-6.01-6.28-8.39Z"/>
        <path class="cls-2" d="M281.6,131.64c-1.24,1.99-.88,4.71.62,7.13-2.35,5.84-.5,11.52-.9,17.12-.03.48.33,1.03.2,1.47-1.36,4.8-1.45,9.77-2.1,14.66-.04.32-.13.7-.33.94-4.72,5.52-5.72,13.44-11.73,18.12-2.29,5.62-7.57,7.59-12.35,10.21-2.09,1.15-4.18,1.82-6.61,1.9-3.34.11-6.46,1.39-9.43,2.8-2.04.97-4.07,1.47-6.26,1.18-3.99-.52-7.96-.51-12.14.03-2.54-1.84-5.63-2.41-8.75-2.69-4.17-.37-8.21-1.79-11.89-3.26-6.18-2.46-11.96-6.03-16.38-11.47-4.44-5.46-7.25-11.47-9.07-18.29-1.1-4.13-3.29-8.01-2.71-12.43.47-3.62.75-7.21.44-10.83-.55-6.28.77-12.64-.77-18.89-.23-.92-.08-2.02.19-2.95,2.14-7.37.97-14.81-.05-22.08-.65-4.62.12-8.93.57-13.34.41-4.05.69-8,.03-12.1-.58-3.57-.49-7.34-.09-10.95.65-5.91.99-11.84,2.01-17.74.83-4.81,3.17-8.97,4.43-13.55.57-2.06,2.62-2.96,3.75-4.58,5.56-8.02,14-12.14,22.62-15.38,4.42-1.66,9.22-3.39,14.43-2.82,3.74.41,7.49-1.13,11.36-.92,4.03.21,7.95.48,11.57,2.49,1.3.72,2.72,1.29,4.26.88,2.7-.73,4.69.28,6.79,2.01,2.41,1.99,5.22,3.52,7.94,5.1,7.02,4.07,11.98,9.79,14.74,17.46,1,2.79,2.81,5.28,3.26,8.28.76,5.02,2.31,9.93,1.77,15.12-.49,4.77.63,9.63-.79,14.37-.17.58-.01,1.36.22,1.96,2.29,5.82,1.26,11.78.91,17.73-.13,2.3-.71,4.63.3,6.9.57,1.28.12,2.59-.03,3.91-.85,7.08-.34,14.16,0,22.49Z"/>
        <path class="cls-2" d="M539.89,105.87c1.29-5.94,2.15-11.42,1.39-17.16-.54-4.1-.23-8.3-1.23-12.38-.15-.63-.11-1.33-.05-1.99,1.04-10.02,1.45-20.06.78-30.13-.14-2.18.46-4.27,1.23-6.13-.66-1.79-1.23-3.34-1.89-5.15,1.44-2.84.67-6.01.58-9.07.8-2.17,2.32-3.73,3.86-5.7,5.59-1.82,11.46-1.44,17.97-.6,1.89-.63,4.37-1.94,7.26.02.31.38.8,1.06,1.37,1.65,4.46,4.56,5.21,10.07,4.54,16.14-.57,5.22-1.19,10.37-.08,15.76.85,4.11.75,8.6-.38,12.86-.43,1.61-.94,3.3-.31,4.91,1.75,4.53.15,8.78-.89,12.86.32,5.14,2.79,8.63,7.75,11.26,6.08-1.07,12.84.73,19.65-.57,2.98-.57,6.26.89,9.96-1.26,3.89-6.38,3.41-14.04,3.06-23.27.67-2.52,1.31-6.51-.25-10.65-.76-2.01-.6-4.26-.46-6.43.35-5.43.69-10.86,1-16.29.05-.82.07-1.7-.18-2.47-1.3-4.02-.72-7.86.89-11.76,3.85-2.37,7.77-3.65,12.61-3.31,4.87.35,9.86.82,14.39-.11,2.9,1.33,4.86,3.06,6.26,5.27.08.27.21.45.17.59-2.21,8.21.52,16.4.09,24.63-.43,8.29.24,16.63-.09,24.93-.31,7.78.26,15.54.03,23.3-.18,6.29-1.43,12.54-.84,18.86.37,3.94,1.32,7.83.7,11.86-.6,3.89-1,7.67,0,11.73.74,3.05-.28,6.61-.3,9.83-.03,5.72-.68,11.5-.12,17.13.52,5.19.89,10.2-.34,15.28,1.75,6.25.7,12.47.01,18.55-4.92,5.14-11.1,4.83-16.96,4.06-4.14-.55-8.22-.97-12.03-.71-1.95-.82-3.06-2.01-3.82-3.29-1.68-10.72-1.31-21.36-1.18-31.93.06-4.99-.46-10.05.55-15.19.86-4.39-.72-9.21-.81-13.85-.05-2.69-.25-5.28-1.2-8.11-3.36-2.38-7.31-3.22-11.56-2.5-3.45.58-6.71.65-10.28-.13-5.16-1.13-10.19.3-14.52,3.77-.48,7.45-1.55,14.81-1.12,22.28.23,4.09-.4,8.25-.08,12.33.36,4.55-.73,9.19.95,13.7-1.74,5.84-.67,11.84-.9,18.03-1.42,3.37-3.7,6.01-7.95,6.54-4.68-1.03-9.51-1.77-14.63-.67-2.01-.77-4.27-1.27-6.47-1.26-3.7-1.89-4.85-5.17-4.97-8.76-.14-3.99-.28-7.96-.82-11.93-.37-2.77-.32-5.6.46-8.41.91-3.25.37-6.73-.12-9.92-.69-4.48-.1-8.84.32-13.15.61-6.31,0-12.54-.46-18.75-.21-2.81-.6-5.75-.1-8.37.74-3.84-.11-7.65.64-11.41.39-1.92-.83-3.52-1.1-5.39Z"/>
        <path class="cls-2" d="M484.79,53.97c-3.46-4.07-7.71-5.26-11.69-6.59-3.91-1.31-7.95-.73-11.14,2.38-2.15,2.1-4.1,4.37-5.82,7.14-.28,2.76,0,5.78-.94,8.69-.64,2,.33,3.95.93,5.83.65,2.03,1.74,3.89,2.22,6.03.32,1.43,1.36,2.53,2.65,3.47,7.23,5.26,14.35,10.65,21.56,15.93,1.33.97,2.85,1.68,4.3,2.48,1.6.88,3.41,1.58,4.52,3.05,3.32,4.35,8.11,6.69,12.56,9.49,1.15.73,2.21,1.51,3.02,2.56,2.31,3.03,4.39,6.26,7.62,8.48.4.27.76.71.94,1.15,2.6,6.41,6.94,12.02,8.56,18.9,1.24,5.26.85,10.53.73,15.84-.09,4.16-1.04,8.2-1.89,12.16-1.06,4.96-2.91,9.89-6.82,13.55-2.19,2.05-4.38,3.97-5.27,7.06-.51,1.79-2.13,2.87-3.87,3.67-2.72,1.27-5.19,2.89-7.38,5.01-1.82,1.77-4.17,2.82-6.78,2.73-2.46-.08-4.53.75-6.47,2.11-2.16,1.51-4.45,2.21-7.06,1.25-.45-.17-1-.24-1.48-.16-6.59,1.05-13.11-.36-19.67-.49-1.31-.02-2.72-.15-3.91-.65-5.49-2.26-11.13-4.2-15.93-7.88-1.3-1-2.82-1.7-4.18-2.51-3.6-6.43-8.52-11.91-12.18-19,.25-3-.25-6.56-2.05-9.97,1.67-3.59.17-7.18.03-10.78-.19-4.82.68-6.27,5.06-8.33,7.64.72,15.06.7,22.6-.66,1.7.45,3.13,1.54,4.39,2.62,1.09,6.73,2.48,13.11,5.71,18.98,1.15,2.09,2.54,3.33,5.03,3.4,1.64.04,3.43.2,4.87.88,4.14,1.95,8,.96,12.04-.34,6.32-2.03,11.37-8.58,11.39-15.19,0-1.52-.12-2.94-.92-4.31-1.18-2-1.68-4.32-2.57-6.43-1.96-4.62-4.78-8.66-10.01-10.75-1.25-3.23-4.08-5.14-7.14-6.92-2.86-1.67-5.58-3.59-8.26-5.54-2.7-1.96-5.54-3.63-8.77-4.77-2.22-2.84-4.12-6.18-8.36-6.15-1.58-4.91-5.85-6.55-9.48-9.39-1.17-2.38-2.85-4.71-5.08-6.82-3.16-2.99-5-7.05-6.37-11.14-1.92-5.76-3.52-11.61-4.1-17.73-.42-4.41,1.13-8.51,1.52-12.78.16-1.78.39-3.61.68-5.57,1.36-1.76,1.93-4.01,2.8-6.15,2.62-6.4,5.4-12.47,11.7-16.7,3.52-2.36,7.69-3.82,10.72-6.97.54-.56,1.43-1,2.2-1.07,4.55-.43,8.5-2.84,12.89-3.76,5.23,1.12,10.43.32,15.64-.18.33-.03.67-.17.99-.11,6.98,1.2,13.99,2.35,19.83,6.85,1.31,1.01,2.45,2.48,3.93,3.01,2.69.96,4.43,2.91,6.15,4.89,3.16,3.63,5.87,7.65,8.62,11.55,1.98,2.8,2.14,6.87,3.17,10.35,1.5,5.07.54,10.21.38,15.3-.12,3.88-2.56,6.35-7.03,8.18-4.72,0-10.39-.2-16.03.07-3.63.17-6.29-1.82-9.23-3.21-1.24-.58-1.93-1.98-1.8-3.35.34-3.44-.42-6.54-2.03-9.57-.49-.92-.2-2.26-.25-3.11Z"/>
        <path class="cls-2" d="M135.97,51.64c-2.2,1.63-4.06,3-6.16,4.55,0,3.37-.02,6.84.01,10.31,0,1.16.44,2.45-.27,3.42-2.65,3.61-1.37,7.46-.33,10.98.96,3.23,1.06,6.15-.23,9.1.59,2.53,1.5,4.89.3,7.41-.58,1.21.13,2.6.17,3.88.2,5.7,1.7,11.4-.12,17.12-.49,1.53-.3,3.29-.33,4.94-.01.82.01,1.72.34,2.44,1.01,2.24.82,4.56.74,6.88-.27,7.41-1.03,14.77-.57,22.25.19,3.19-.15,6.49.48,9.73.03.16.04.34,0,.5-1.64,6.86-.04,13.81-.58,20.71-.32,4.08.34,8.2-1.12,12.23-.61,1.69-1.31,2.98-2.02,3.33-7.45,1.8-14.14,1.19-20.76,1.56-6.84.38-10.29-3.93-10.64-10.76-.32-6.27.3-12.48.08-18.71-.05-1.47-.45-2.93-.72-4.65,1.91-3.3,2.16-6.89.97-10.8-.66-2.16-.36-4.62-.46-6.94-.32-7.43-.64-14.86-.91-22.29-.03-.98.13-2.01.42-2.95,1.83-5.98,1.5-12.03,1.05-18.16-.27-3.62-.1-7.23-1.24-10.79-.75-2.34.84-4.49,1.67-6.98-.44-2.31-.96-4.91-1.42-7.51-.41-2.32-.44-4.57.43-6.87,1.94-5.14,1.82-10.41.3-15.63-.64-2.19-.55-4.66-2.21-6.43-6.32-2.66-12.86-1.27-19.28-1.46-1.33-.04-2.67.17-3.99.06-5.39-.47-7.15-2.41-7.92-7.74-.71-4.97-.87-9.93-.63-14.92.16-3.16.55-6.29,1.2-9.13,1.46-2.31,3.76-2.76,5.81-2.88,5.91-.35,11.85-.34,17.78-.44,1.98-.04,3.96-.24,5.88.69,1.22.59,2.63.37,3.92-.05,1.3-.43,2.6-.54,3.93-.18,2.63.71,5.18.76,7.8-.3,1.17-.47,2.62-.29,3.95-.29,6.3-.02,12.6.03,18.89-.02,1.87-.02,3.6.56,5.31.92,6.62-1.9,13.32.06,19.99-1,2.32,1.94,5.32,2.82,7.42,5.65.51,5.72.83,11.8,1.57,17.86.81,6.62-3.37,10.86-10,10.68-6.3-.17-12.45,1.98-18.5.68Z"/>
        <path class="cls-2" d="M30.74,169.02c2.95,1.68,6.05.33,9.12-.06,6.82-.87,12.43,3.51,12.87,10.42.21,3.29.83,6.62-.52,9.87-.45,1.08-.15,2.28.22,3.43.8,2.5.43,4.91-.52,7.12-3.11,2.96-6.58,3.62-10.67,3.25-4.28-.39-8.65.01-12.97.17-1.67.06-3.32.29-5.12-.46-2.64-1.95-2.78-5.33-4.09-8.36.86-2.42.83-4.87.34-7.61-.91-5.05-1.11-10.3,2.42-15.15,2.75-.81,5.74-1.69,8.93-2.63Z"/>
        <path class="cls-1" d="M353.72,173.71c-3.28-.84-6.57-2.06-9.8-1.77-5.32-2.7-7.69-7.57-10.76-11.72.86-3.98-.8-7.58-.77-11.33,0-1.1-.59-2.3-.26-3.42,1.61-5.38.25-10.95,1.1-16.38.08-.48.11-1.05-.07-1.48-2.14-4.85-.73-9.72-.17-14.6.47-4.14.39-8.29-.5-12.35-.51-2.34-.65-4.54.14-6.84.72-2.07,1.04-4.46.31-6.39-1.62-4.29-.57-8.56-.4-12.78.16-4.14.6-8.26.51-12.43-.08-3.91,2.26-7.18,4.82-9.54,3.58-3.28,7.86-6.1,13.2-5.8,3.3.18,6.66.02,9.84,1.25,5,1.93,7.16,3.83,11.39,10.38,0,3.06.11,6.88-.04,10.68-.09,2.2.2,4.27.86,6.35,1.09,3.42.39,7.06-.24,10.24-1.03,5.16-.45,10.23-.82,15.32-.46,6.27,1.26,12.47.9,18.77-.13,2.32-.08,4.61-.68,6.91-.59,2.25-.81,4.7-.09,6.92.96,2.96.84,5.95.68,8.9-.23,4.4-.25,8.79-.25,13.19,0,3.48-1.9,6.81-3.9,9.53-2.56,3.5-5.22,7.47-10.74,6.93-1.34-.13-2.79.91-4.27,1.45Z"/>
        <path class="cls-1" d="M205.92,91.27c1.56-4.93,1.31-9.8,1.53-14.53.14-3.08.04-6.31-.29-9.44-.36-3.42.36-6.51,1.54-9.71,1.48-4.01,3.94-6.8,7.88-8.41,1.37-.56,2.63-1.39,4.04-2.16,2.71.24,5.47,1.01,8.29.13,1.34-.42,2.68.15,3.78.9,2.11,1.42,4.43,2.13,6.83,2.3,1.82,2.21,3.5,4.26,5.4,6.56,1.13,6.04,1.92,12.35,1.04,18.82-.29,2.11-.27,4.39.19,6.46,1.14,5.11,1.12,10.21.44,15.33-.16,1.23.21,2.29.31,3.43.23,2.49.29,4.96-.39,7.43-.35,1.26-.73,2.68-.5,3.92,1.5,8.05-.28,16.17.53,24.13.63,6.15-1.5,12.24.3,18.3.22.75.17,1.75-.15,2.45-1.57,3.45-3.26,6.85-4.94,10.24-.21.43-.59.91-1.01,1.08-4.24,1.76-8.36,4.76-12.94,4.48-5.7-.35-11.5-1.46-16.02-5.77-1.61-1.54-3.16-3.12-3.58-5.26-1.09-5.66-2.95-11.25-1.6-17.18.28-1.24-.06-2.63-.17-3.95-.09-.99-.64-2.09-.36-2.93,1.94-5.75.26-11.53.36-17.28.1-6.11.45-12.22.55-18.34.06-3.62.47-7.3-1.06-11.01Z"/>
      </g>
    </g>
  </g>
</svg>