<?xml version="1.0" encoding="UTF-8"?>
<svg id="Layer_1" xmlns="http://www.w3.org/2000/svg" version="1.1" viewBox="0 0 632.4 6.9">
  <!-- Generator: Adobe Illustrator 29.0.1, SVG Export Plug-In . SVG Version: 2.1.0 Build 192)  -->
  <g id="Layer_11" data-name="Layer_1">
    <path d="M16.1,0c3.6.3,8.6-.6,13.5.8,1,.3,2.2-.3,3.4-.3,1.3,0,2.5-.1,3.8,0,.5,0,1,.4,1.4.4,2.5-.2,5-1.6,7.5,0,2.3-1,4.7-.6,7.2-.4,3.9.3,7.9-.2,11.8-.5,3.3-.2,6.5.4,9.8,0,3.1-.4,6.3-.4,9.5-.4,8.4,0,16.9.2,25.3.3,13.8,0,27.6,0,41.4.1,1.8,0,3.6.4,5.4.6.3,0,.7.4.9.3,5.6-2.2,11.4-.5,17.1-.7,6.4-.2,12.9.1,19.4.3,5.2.2,10.5-.4,15.8-.4s7.4.3,11.1,0c3.8-.3,7.7-.1,11.5-.1s7.7,0,11.5,0,7.7,0,11.5,0c2.3,0,4.5.5,6.8.8.5,0,1,.2,1.5,0,8.4-1.8,16.9-.7,25.3-.9,11.1-.2,22.2,0,33.3,0,2.3,0,4.6-.6,6.8.8.5.3,1.3,0,1.9,0,2.1-.2,4.3-.3,6.4-.8,2.5-.6,4.7,1.1,7.2.3,2.2-.6,4.6-.2,6.9-.3,4.1,0,8.1.6,12.2.1,4-.4,8-.3,12,0,7.2.3,14.5-.1,21.7,0,6.1,0,12.1-.6,18.1.8,1.6.4,3.7-1,5.3-.6,3.3.9,6.4-.4,9.6-.2,3.2.2,6.4.3,9.6.3,7.8,0,15.5-.2,23.3-.2,10.6,0,21.3,0,32,0,8.2,0,16.3-.4,24.5-.4s6.5.8,9.8,1c1.7.1,3.5-.5,5.2-.5,5.2,0,10.3,0,15.5,0s9.7.7,14.6.2c4.8-.5,9.7-.2,14.5,0,4.5.1,9.1.6,13.6.6,5.1,0,10.3-.3,15.4-.6,3.4-.2,6.8,1.2,10.2-.4.3-.1,1,.2,1.3.5,1.7,1.3,3.3,1,5.1.4,2.1-.7,4.3-.7,6.2.6.6.4,1.7,1.2,1.6,1.6-.3,1.2-.8,2.5-1.7,3.3-.8.7-2.4,1.2-3.2.9-4.5-2-9.1-.4-13.7-.5-4.3-.2-8.6.2-12.8-.2-4.9-.4-9.8.3-14.6,0-2.1,0-4.3-.4-6.4-.5-.8,0-1.5.2-2.3.2-3.5,0-6.9,0-10.4,0-.6,0-1.4-.6-1.8-.4-3.8,1.8-7.7.9-11.6.7-2.8-.1-5.6.5-8.4.5-3,0-6.1-.5-9.2-.5-12,0-24,0-36,0-2.5,0-5-1.1-7.3-.6-2.9.7-5.6.4-8.4.5-5.3.1-10.6,1-15.8-.7-4.2,1-8.5-.9-12.7.8-.6.2-1.3,0-2,0-4.2.2-8.3-.8-12.6-.1-4.2.7-8.6.1-13,.1h-26.5c-4.3,0-8.7.1-13,0-3.4-.1-6.7-.3-10.1,0-3.3.3-6.7-.1-10,0-5.2.3-10.5,0-15.7,0-5.3,0-10.6,0-16,0-14.6.2-29.2-.1-43.8,0-6.8,0-13.6.3-20.3,0-6.2-.4-12.4.3-18.6,0-2.1,0-4.2-.6-6.3-.7-.8,0-1.6.2-2.4.3-.6.1-1.4.6-1.9.4-3.6-1.2-7.3,0-10.9-.8-.6-.1-1.3,0-2,.1-4.6,1.1-9.1,1.3-13.7,0-.5-.1-1-.3-1.4-.2-6.5,1.9-13.2.5-19.8.9-1.7.1-3.3,0-5,0-3.7.2-7.4-.6-11.1-.2-3.8.4-7.6.1-11.5.2-3.2,0-6.4-.6-9.8-.2-3.4.4-7,0-10.5.1-3.3,0-6.7,0-10,0-3.3,0-6.6-.2-10,0-7.6.3-15.2-.1-22.7.1-6.9.2-13.7,0-20.6,0-6.8,0-13.7.2-20.5-.1-3.3-.1-6.5.3-9.7.1-2.6-.2-5.3-1-7.7-.5-2.8.6-5.2.2-7.7-.5-.5-.1-1-.1-1.5,0-5.5,1.6-11.2.9-16.8.9-2.9,0-5.8-.6-8.8-.6-2.8,0-5.6.4-8.3.7-.5,0-1,0-1.5,0C.9,5.9,0,4.7,0,2.8,0,1.1,1.1,0,2.8,0,6.8,0,10.8,0,16.1,0h0Z"/>
  </g>
</svg>