<?xml version="1.0" encoding="UTF-8"?>
<svg xmlns="http://www.w3.org/2000/svg" version="1.1" viewBox="0 0 647.49 29.49">
  <!-- Generator: Adobe Illustrator 28.7.2, SVG Export Plug-In . SVG Version: 1.2.0 Build 154)  -->
  <g>
    <g id="Layer_1">
      <path d="M24.23,12.68c3.65.27,8.63-.55,13.53.83,1.01.29,2.24-.26,3.38-.33,1.27-.08,2.55-.11,3.82-.07.47.01.95.44,1.4.4,2.51-.22,5.02-1.61,7.53.03,2.35-1,4.7-.57,7.17-.4,3.92.27,7.89-.25,11.84-.48,3.26-.2,6.49.44,9.77.07,3.13-.35,6.3-.43,9.46-.41,8.45.04,16.9.24,25.35.27,13.82.06,27.64.03,41.45.1,1.79,0,3.58.37,5.36.59.32.04.68.35.92.26,5.6-2.15,11.38-.53,17.06-.73,6.44-.23,12.91.11,19.36.33,5.18.17,10.52-.45,15.79-.45,3.71,0,7.4.34,11.13.04,3.81-.31,7.66-.11,11.49-.11,3.83,0,7.66.04,11.49.04,3.83,0,7.66-.09,11.49.04,2.28.08,4.55.52,6.83.78.49.06,1.02.16,1.48.06,8.38-1.78,16.87-.69,25.3-.85,11.09-.2,22.19-.08,33.28,0,2.27.02,4.64-.62,6.83.75.45.28,1.27,0,1.91-.07,2.13-.23,4.3-.3,6.38-.76,2.46-.55,4.66,1.06,7.24.31,2.16-.63,4.62-.22,6.94-.26,4.07-.08,8.1.56,12.22.12,3.95-.42,7.99-.26,11.97-.09,7.25.31,14.5-.11,21.74-.06,6.06.05,12.11-.55,18.14.77,1.64.36,3.7-1.04,5.3-.62,3.29.87,6.39-.35,9.57-.18,3.19.17,6.38.31,9.57.31,7.76-.02,15.52-.17,23.28-.2,10.65-.05,21.31.03,31.96-.06,8.18-.07,16.35-.44,24.53-.44,3.26,0,6.52.8,9.79.98,1.73.1,3.49-.48,5.24-.51,5.16-.09,10.32-.07,15.47-.07,4.87,0,9.69.69,14.61.17,4.78-.51,9.65-.19,14.48-.09,4.54.1,9.08.56,13.62.56,5.13-.01,10.26-.29,15.38-.61,3.38-.21,6.82,1.18,10.16-.39.31-.14.96.18,1.32.46,1.66,1.32,3.28,1.01,5.14.35,2.06-.73,4.27-.74,6.21.59.64.44,1.71,1.19,1.62,1.57-.28,1.19-.78,2.55-1.66,3.33-.76.68-2.39,1.22-3.21.86-4.51-1.96-9.12-.36-13.65-.53-4.26-.16-8.57.19-12.82-.16-4.9-.4-9.75.29-14.62.09-2.14-.09-4.26-.42-6.4-.55-.77-.05-1.55.24-2.33.25-3.47.04-6.94.05-10.41.01-.61,0-1.37-.6-1.81-.39-3.79,1.81-7.68.9-11.58.72-2.79-.13-5.61.46-8.41.45-3.05,0-6.11-.47-9.16-.49-11.98-.07-23.97,0-35.95-.08-2.45-.02-5.05-1.12-7.3-.58-2.85.69-5.58.41-8.36.46-5.27.1-10.58,1.03-15.77-.68-4.17.99-8.53-.86-12.68.8-.57.23-1.32,0-1.99.04-4.2.22-8.31-.82-12.61-.15-4.22.66-8.63.14-12.96.14-4.49,0-8.99,0-13.48,0-4.32,0-8.65,0-12.97,0-4.33,0-8.66.12-12.99-.04-3.37-.12-6.71-.26-10.09.01-3.31.26-6.66-.13-9.99.04-5.24.26-10.48-.07-15.72-.02-5.32.05-10.65-.05-15.97.02-14.61.19-29.21-.13-43.82-.02-6.78.05-13.57.34-20.32-.09-6.22-.4-12.38.27-18.57.07-2.11-.07-4.21-.56-6.32-.74-.77-.07-1.57.18-2.35.33-.64.12-1.37.57-1.9.39-3.57-1.19-7.3.05-10.88-.83-.61-.15-1.33-.05-1.96.11-4.56,1.14-9.11,1.29-13.68.03-.47-.13-1.02-.31-1.45-.19-6.52,1.94-13.19.47-19.77.91-1.66.11-3.34-.08-4.99.04-3.7.25-7.36-.57-11.1-.17-3.79.41-7.65.11-11.48.2-3.25.08-6.44-.58-9.75-.19-3.45.4-6.98.09-10.48.1-3.33,0-6.66.04-9.99.03-3.32-.01-6.65-.21-9.97-.08-7.58.3-15.17-.15-22.74.12-6.86.25-13.7-.09-20.56-.04-6.82.05-13.65.2-20.45-.1-3.27-.14-6.49.33-9.74.1-2.59-.19-5.31-1-7.72-.45-2.78.64-5.18.25-7.72-.5-.46-.13-1.02-.12-1.49,0-5.53,1.56-11.2.86-16.81.9-2.92.02-5.84-.64-8.76-.65-2.77,0-5.55.44-8.32.68-.5.04-1,.05-1.5,0-2.01-.2-3.03-1.34-2.93-3.24.09-1.78,1.09-2.8,2.82-2.83,3.99-.07,7.99-.02,13.27-.02Z"/>
    </g>
  </g>
</svg>